<svg width="20" height="20" viewBox="0 0 20 20" fill="none" xmlns="http://www.w3.org/2000/svg">
<path d="M17.5 12.75V15.75C17.5 18.168 16.168 19.5 13.75 19.5H3.75C1.332 19.5 0 18.168 0 15.75V5.75C0 3.332 1.332 2 3.75 2H6.75C7.164 2 7.5 2.336 7.5 2.75C7.5 3.164 7.164 3.5 6.75 3.5H3.75C2.173 3.5 1.5 4.173 1.5 5.75V15.75C1.5 17.327 2.173 18 3.75 18H13.75C15.327 18 16 17.327 16 15.75V12.75C16 12.336 16.336 12 16.75 12C17.164 12 17.5 12.336 17.5 12.75ZM19.5 3.806C19.499 4.393 19.27 4.944 18.854 5.358L9.89099 14.281C9.74999 14.421 9.56 14.5 9.362 14.5H5.75C5.336 14.5 5 14.164 5 13.75V10.139C5 9.94101 5.07799 9.74999 5.21899 9.60999L14.142 0.645996C14.555 0.229996 15.107 0.001 15.694 0C15.695 0 15.696 0 15.697 0C16.283 0 16.834 0.228005 17.249 0.643005L18.858 2.25201C19.272 2.66701 19.501 3.219 19.5 3.806ZM15.367 6.71301L12.787 4.133L6.5 10.449V13.001H9.052L15.367 6.71301ZM18 3.80399C18 3.61799 17.928 3.44301 17.797 3.31201L16.188 1.703C16.057 1.572 15.882 1.5 15.697 1.5H15.696C15.51 1.5 15.336 1.57301 15.205 1.70401L13.846 3.069L16.431 5.65399L17.796 4.29501C17.927 4.16501 17.999 3.98999 18 3.80399Z" fill="white"/>
</svg>
